# xmcd CD database file
#
# Track frame offsets:
#	150
#	14772
#	30362
#	42362
#	56675
#	74175
#	91362
#	109947
#	130415
#
# Disc length: 2028 seconds
#
# Revision: 1
# Processed by: cddbd v1.5.2PL0 Copyright (c) Steve Scherf et al.
# Submitted via: CDex 1.51
#
DISCID=8307ea09
DTITLE=Daniel Francis Doyle - We Bet Our Money On You
DYEAR=2009
DGENRE=New Age
TTITLE0=Old Lives
TTITLE1=Street Stress
TTITLE2=Fighter's Son
TTITLE3=Send You Away
TTITLE4=Learning Things At School
TTITLE5=Your Cursive
TTITLE6=How Can You Work?
TTITLE7=Your Baby Is Speaking
TTITLE8=Always Calm
EXTD=YEAR: 2009
EXTT0=
EXTT1=
EXTT2=
EXTT3=
EXTT4=
EXTT5=
EXTT6=
EXTT7=
EXTT8=
PLAYORDER=
